<svg width="66" height="68" viewBox="0 0 66 68" fill="none" xmlns="http://www.w3.org/2000/svg">
<g filter="url(#filter0_d_116_989)">
<path d="M59.25 59.7188H6.75C5.67375 59.7188 4.78125 58.8263 4.78125 57.75C4.78125 56.6737 5.67375 55.7812 6.75 55.7812H59.25C60.3262 55.7812 61.2188 56.6737 61.2188 57.75C61.2188 58.8263 60.3262 59.7188 59.25 59.7188Z" fill="#23313A"/>
<path d="M38.9062 59.7188H27.0938C26.0175 59.7188 25.125 58.8262 25.125 57.75V10.5C25.125 5.985 27.6188 3.28125 31.8188 3.28125H34.1812C38.3812 3.28125 40.875 5.985 40.875 10.5V57.75C40.875 58.8262 39.9825 59.7188 38.9062 59.7188ZM29.0625 55.7812H36.9375V10.5C36.9375 7.48125 35.52 7.21875 34.1812 7.21875H31.8188C30.48 7.21875 29.0625 7.48125 29.0625 10.5V55.7812Z" fill="#23313A"/>
<path d="M19.875 59.7188H9.375C8.29875 59.7188 7.40625 58.8262 7.40625 57.75V26.25C7.40625 21.735 9.71625 19.0312 13.575 19.0312H15.675C19.5338 19.0312 21.8438 21.735 21.8438 26.25V57.75C21.8438 58.8262 20.9513 59.7188 19.875 59.7188ZM11.3438 55.7812H17.9062V26.25C17.9062 22.9688 16.4625 22.9688 15.675 22.9688H13.575C12.7875 22.9688 11.3438 22.9688 11.3438 26.25V55.7812Z" fill="#23313A"/>
<path d="M56.625 59.7188H46.125C45.0487 59.7188 44.1562 58.8263 44.1562 57.75V39.375C44.1562 34.86 46.4663 32.1562 50.325 32.1562H52.425C56.2837 32.1562 58.5938 34.86 58.5938 39.375V57.75C58.5938 58.8263 57.7013 59.7188 56.625 59.7188ZM48.0938 55.7812H54.6562V39.375C54.6562 36.0938 53.2125 36.0938 52.425 36.0938H50.325C49.5375 36.0938 48.0938 36.0938 48.0938 39.375V55.7812Z" fill="#23313A"/>
</g>
<defs>
<filter id="filter0_d_116_989" x="-2.5" y="0" width="71" height="71" filterUnits="userSpaceOnUse" color-interpolation-filters="sRGB">
<feFlood flood-opacity="0" result="BackgroundImageFix"/>
<feColorMatrix in="SourceAlpha" type="matrix" values="0 0 0 0 0 0 0 0 0 0 0 0 0 0 0 0 0 0 127 0" result="hardAlpha"/>
<feOffset dy="4"/>
<feGaussianBlur stdDeviation="2"/>
<feComposite in2="hardAlpha" operator="out"/>
<feColorMatrix type="matrix" values="0 0 0 0 0 0 0 0 0 0 0 0 0 0 0 0 0 0 0.25 0"/>
<feBlend mode="normal" in2="BackgroundImageFix" result="effect1_dropShadow_116_989"/>
<feBlend mode="normal" in="SourceGraphic" in2="effect1_dropShadow_116_989" result="shape"/>
</filter>
</defs>
</svg>
