<svg width="163" height="143" viewBox="0 0 163 143" fill="none" xmlns="http://www.w3.org/2000/svg">
<rect x="1" y="1" width="161" height="141" rx="2.5" fill="white"/>
<rect x="1" y="1" width="161" height="141" rx="2.5" stroke="#D0D2D3"/>
<path d="M81.5002 77.4354C81.0831 77.4354 80.666 77.3391 80.3131 77.1146C79.1581 76.4408 78.7731 74.965 79.4147 73.8421L82.1418 69.0937H79.4468C77.8427 69.0937 76.5272 68.3879 75.8214 67.2008C75.1156 65.9816 75.1797 64.5058 75.9818 63.0941L79.4147 57.1266C80.0885 55.9716 81.5643 55.5866 82.6872 56.2283C83.8422 56.9021 84.2272 58.3779 83.5856 59.5008L80.8585 64.2812H83.5535C85.1577 64.2812 86.4731 64.9871 87.1789 66.1741C87.8847 67.3933 87.8206 68.8691 87.0185 70.2808L83.5856 76.2483C83.1364 77.0183 82.3343 77.4354 81.5002 77.4354Z" fill="#23313A"/>
<path d="M90.387 96.3646H72.7091C71.2974 96.3646 69.5008 96.2042 68.3137 94.985C67.1587 93.798 67.1908 92.3221 67.2228 91.3275V88.4721C59.1378 83.0821 53.812 73.7138 53.812 64.7946C53.812 56.3567 57.5978 48.4642 64.1749 43.1705C70.752 37.8767 79.3824 35.8875 87.8203 37.7484C95.8412 39.513 102.771 44.8709 106.365 52.0896C113.327 66.11 106.621 81.2855 95.9053 88.5042V90.9105C95.9374 91.8409 95.9695 93.5413 94.6541 94.8888C93.6595 95.8513 92.2478 96.3646 90.387 96.3646ZM72.0033 91.52C72.1637 91.52 72.3883 91.5521 72.677 91.5521H90.387C90.7078 91.5521 90.9324 91.52 91.0608 91.488C91.0608 91.3917 91.0608 91.2634 91.0608 91.1671V87.1246C91.0608 86.2905 91.5099 85.4884 92.2158 85.0713C101.712 79.3284 108.001 66.2063 102.001 54.175C99.0495 48.2396 93.3387 43.8442 86.7295 42.4005C79.7353 40.8605 72.5808 42.4967 67.1266 46.8921C61.6724 51.2875 58.5603 57.8005 58.5603 64.7946C58.5603 73.7138 64.7203 81.4138 70.8162 85.1034C71.5541 85.5525 71.9712 86.3225 71.9712 87.1567V91.488C72.0033 91.488 72.0033 91.488 72.0033 91.52Z" fill="#23313A"/>
<path d="M92.729 105.99C92.5044 105.99 92.2798 105.958 92.0552 105.893C85.1252 103.904 77.8423 103.904 70.9123 105.893C69.629 106.246 68.3135 105.508 67.9285 104.225C67.5436 102.942 68.3135 101.626 69.5969 101.241C77.361 99.0276 85.6065 99.0276 93.3706 101.241C94.654 101.594 95.3919 102.942 95.039 104.225C94.7502 105.316 93.7877 105.99 92.729 105.99Z" fill="#23313A"/>
</svg>
