<svg width="90" height="52" viewBox="0 0 90 52" fill="none" xmlns="http://www.w3.org/2000/svg">
<path d="M47.8442 26.7576L68.8711 5.73071" stroke="#95D60A" stroke-width="3" stroke-linecap="round"/>
<path d="M47.6113 26.9875L30.64 9.55371" stroke="#95D60A" stroke-width="3" stroke-linecap="round"/>
<path d="M49.7554 38.2268L30.64 19.1114" stroke="#95D60A" stroke-width="3" stroke-linecap="round"/>
<path d="M51.667 49.696L80.34 21.0229" stroke="#00829C" stroke-width="3" stroke-linecap="round"/>
<path d="M51.667 49.696L26.3848 24.6937" stroke="#00829C" stroke-width="3" stroke-linecap="round"/>
<path d="M7.24756 43.2139L26.4104 24.6936" stroke="#00829C" stroke-width="3" stroke-linecap="round"/>
<path d="M19.1709 43.9614L26.817 36.3153" stroke="#00829C" stroke-width="3" stroke-linecap="round"/>
<path d="M13.4365 49.696L15.3481 47.7845" stroke="#00829C" stroke-width="3" stroke-linecap="round"/>
<path d="M6.78027 32.0483L30.6403 9.55374" stroke="#95D60A" stroke-width="3" stroke-linecap="round"/>
<path d="M1.99994 37.201L3.95926 35.3384" stroke="#95D60A" stroke-width="3" stroke-linecap="round"/>
<path d="M71.3627 2.72741C71.6267 2.68798 71.8549 2.91273 71.8194 3.17735L70.9737 9.49049C70.9298 9.8183 70.5303 9.95507 70.2947 9.72297L64.8408 4.35057C64.6051 4.11848 64.7359 3.717 65.063 3.66815L71.3627 2.72741Z" fill="#95D60A"/>
<path d="M87.474 0.00451241C87.7381 -0.0349203 87.9662 0.189826 87.9308 0.454452L87.085 6.76759C87.0411 7.0954 86.6416 7.23217 86.406 7.00007L80.9521 1.62767C80.7165 1.39558 80.8472 0.994099 81.1743 0.945252L87.474 0.00451241Z" fill="#00829C"/>
<path d="M55.4902 32.4922L84.1633 3.81915" stroke="#00829C" stroke-width="3" stroke-linecap="round"/>
<path d="M86.5357 23.9268L88.2165 22.2271L87.8701 22.0584L86.2762 23.6702L86.5357 23.9268Z" fill="#00829C"/>
<path d="M85.656 21.6951L81.7737 19.806C81.7018 19.771 81.6435 19.7133 81.6077 19.6418L79.6754 15.7808L77.264 18.2192L77.2671 18.2222L77.2275 18.2492C76.94 18.5399 77.6408 20.5127 79.2923 22.1459C80.9438 23.779 82.9214 24.4538 83.2083 24.1637L83.2346 24.1235L83.2449 24.1337L85.656 21.6951Z" fill="#00829C"/>
<path d="M80.1511 15.2984L82.1388 19.2698L86.1322 21.2131L87.8698 22.0585L88.2162 22.2272L88.3987 22.3159L85.2721 16.1014L79.0228 13.044L80.1511 15.2984Z" fill="#00829C"/>
<path d="M85.7053 23.8932L84.724 24.8856C84.6436 24.9669 84.5988 25.0769 84.5994 25.1912C84.6 25.3056 84.6461 25.415 84.7274 25.4954C84.8087 25.5758 84.9186 25.6206 85.033 25.62C85.1474 25.6194 85.2568 25.5733 85.3372 25.492L86.3185 24.4996C86.3985 24.4193 86.4435 24.3105 86.4437 24.1972L86.0076 23.7659C85.894 23.7667 85.7853 23.8125 85.7053 23.8932Z" fill="#00829C"/>
<path d="M86.1484 23.5442L85.9673 23.7274L86.0064 23.766L86.4429 24.1977L86.4818 24.2361L86.6629 24.053L86.5355 23.9269L86.276 23.6703L86.1484 23.5442Z" fill="#112935"/>
</svg>
